<svg width="1600" height="1200" viewBox="0 0 1600 1200" fill="none" xmlns="http://www.w3.org/2000/svg">
<rect width="1600" height="1200" fill="white"/>
<rect width="1600" height="1200" fill="#DCDCDB"/>
<mask id="mask0" mask-type="alpha" maskUnits="userSpaceOnUse" x="0" y="0" width="1600" height="1200">
<rect width="1600" height="1200" fill="white"/>
</mask>
<g mask="url(#mask0)">
<path fill-rule="evenodd" clip-rule="evenodd" d="M1600 -0.000488281V1200H1009.94L356 396.069L865.25 -0.000488281L1600 -0.000488281Z" fill="#EAE8E3"/>
<path fill-rule="evenodd" clip-rule="evenodd" d="M450 663C587.519 663 699 551.518 699 414C699 276.481 587.519 165 450 165C312.481 165 201 276.481 201 414C201 551.518 312.481 663 450 663Z" fill="#BFCBBA"/>
<rect x="952.395" y="414.643" width="588.232" height="80.1546" transform="rotate(-30.0857 952.395 414.643)" fill="#DC4618"/>
<path fill-rule="evenodd" clip-rule="evenodd" d="M873.22 896.331L667.314 642.857L617.688 675.815L823.72 935.784L873.22 896.331Z" fill="#DC4618"/>
<path fill-rule="evenodd" clip-rule="evenodd" d="M171.223 983.293L414.413 805.622L392.074 773.475L145.57 932.898L171.223 983.293Z" fill="#EAE8E3"/>
<rect x="611.924" y="829" width="162.706" height="25.2108" transform="rotate(56.0969 611.924 829)" fill="#60BEBF"/>
<path fill-rule="evenodd" clip-rule="evenodd" d="M826.604 692L732.011 576.812L691.734 600L783.91 725.902L826.604 692Z" fill="#3A8EAA"/>
<path fill-rule="evenodd" clip-rule="evenodd" d="M1492.54 -172.315L511.51 513.907L559.875 577.109L1576.96 -67.4697L1492.54 -172.315Z" fill="#2A3E4C"/>
<path fill-rule="evenodd" clip-rule="evenodd" d="M573.375 589.382L912.851 403.733L937.3 447.767L601.875 631.593L573.375 589.382Z" fill="#E5AB17"/>
<rect x="114" y="1107.67" width="380.316" height="50.3661" transform="rotate(-40.0416 114 1107.67)" fill="#EAE8E3"/>
<path fill-rule="evenodd" clip-rule="evenodd" d="M315.848 909.492L437.235 812.55L460.308 837.942L338.921 934.884L315.848 909.492Z" fill="#E5AB17"/>
<path d="M1116.34 452.616L1453.04 267.763L1465.98 293.073L1129.28 477.925L1116.34 452.616Z" fill="#28203D"/>
<path fill-rule="evenodd" clip-rule="evenodd" d="M1145.03 241.088L1470.31 44.9786L1484.98 69.3234L1159.7 265.433L1145.03 241.088Z" fill="#BFCBBA"/>
<rect x="1063.14" y="531.044" width="379.905" height="7.18508" transform="rotate(-27.0857 1063.14 531.044)" fill="#849C9B"/>
<rect x="238.871" y="222" width="947.973" height="21.3867" transform="rotate(51.5427 238.871 222)" fill="#28203D"/>
<path fill-rule="evenodd" clip-rule="evenodd" d="M624.655 773.079L228.267 292.367L166.207 332.765L556.273 824.413L624.655 773.079Z" fill="#849C9B"/>
<path fill-rule="evenodd" clip-rule="evenodd" d="M1001.39 760.096C1022.47 755.039 1035.49 733.94 1030.46 712.969C1025.43 691.999 1004.26 679.099 983.176 684.156C962.092 689.214 949.078 710.313 954.108 731.283C959.138 752.254 980.307 765.154 1001.39 760.096Z" fill="#849C9B"/>
<path fill-rule="evenodd" clip-rule="evenodd" d="M187.553 753.248C225.522 744.141 248.959 706.143 239.9 668.378C230.842 630.614 192.719 607.382 154.749 616.49C116.78 625.597 93.3433 663.595 102.402 701.36C111.46 739.124 149.584 762.356 187.553 753.248Z" fill="#EAE8E3"/>
<path fill-rule="evenodd" clip-rule="evenodd" d="M493.066 452.672C509.585 448.71 519.782 432.178 515.841 415.748C511.9 399.318 495.314 389.211 478.795 393.174C462.276 397.136 452.08 413.667 456.021 430.097C459.961 446.527 476.547 456.634 493.066 452.672Z" fill="#DC4618"/>
<path fill-rule="evenodd" clip-rule="evenodd" d="M326.002 751.858C342.441 747.915 352.588 731.464 348.666 715.114C344.744 698.763 328.239 688.705 311.8 692.649C295.361 696.592 285.214 713.042 289.136 729.393C293.058 745.743 309.563 755.801 326.002 751.858Z" fill="#BFCBBA"/>
<path d="M508.128 485.163L787.935 291.96L785.563 288.525L505.756 481.728L508.128 485.163Z" fill="#28203D"/>
<path d="M1075.34 911.575L1220.05 1081.24L1225.38 1076.7L1080.66 907.033L1075.34 911.575Z" fill="#28203D"/>
<path d="M164.372 70.6136L309.166 251.424L312.424 248.814L167.63 68.0042L164.372 70.6136Z" fill="#28203D"/>
<path d="M262.117 945.803L78.1719 1094.54L80.7965 1097.78L264.742 949.049L262.117 945.803Z" fill="#28203D"/>
<path fill-rule="evenodd" clip-rule="evenodd" d="M1208.06 761.593L1169.27 716.963L1165.8 719.979L1204.59 764.609L1159.96 803.405L1162.98 806.874L1207.61 768.078L1246.41 812.708L1249.88 809.692L1211.08 765.062L1255.71 726.266L1252.69 722.796L1208.06 761.593Z" fill="#DC4618"/>
<path fill-rule="evenodd" clip-rule="evenodd" d="M171.769 684.982L151.791 662L150.004 663.553L169.983 686.535L147 706.514L148.553 708.3L171.536 688.322L191.514 711.305L193.301 709.751L173.322 686.769L196.305 666.79L194.752 665.004L171.769 684.982Z" fill="#DC4618"/>
</g>
</svg>
